<?xml version="1.0" standalone="no"?>
<!DOCTYPE svg PUBLIC "-//W3C//DTD SVG 20010904//EN"
 "http://www.w3.org/TR/2001/REC-SVG-20010904/DTD/svg10.dtd">
<svg version="1.0" xmlns="http://www.w3.org/2000/svg"
 width="1280.000000pt" height="1051.000000pt" viewBox="0 0 1280.000000 1051.000000"
 preserveAspectRatio="xMidYMid meet">
<metadata>
Created by potrace 1.15, written by Peter Selinger 2001-2017
</metadata>
<g transform="translate(0.000000,1051.000000) scale(0.100000,-0.100000)"
fill="currentColor" stroke="none">
<path d="M2900 10489 c-249 -154 -492 -590 -626 -1126 -29 -117 -35 -158 -31
-206 15 -163 162 -317 414 -433 163 -75 147 -60 156 -144 5 -41 6 -147 3 -235
-9 -274 -43 -484 -171 -1065 -143 -646 -163 -758 -172 -988 -5 -135 -8 -152
-22 -146 -9 4 -54 16 -101 26 -69 16 -152 21 -440 28 -452 11 -736 33 -1070
81 -242 35 -544 101 -684 149 -33 11 -61 18 -64 16 -8 -9 58 -94 105 -136 88
-78 182 -111 443 -155 233 -39 412 -87 393 -106 -4 -4 -69 -42 -143 -84 -240
-138 -746 -486 -825 -568 l-20 -21 25 17 c172 113 478 282 650 358 556 245
1004 302 1334 170 135 -54 275 -164 349 -274 l35 -52 -9 -75 c-5 -41 -8 -273
-6 -515 2 -513 -2 -546 -97 -840 -138 -430 -135 -408 -146 -895 -12 -488 -30
-695 -79 -930 -28 -129 -28 -130 -68 -255 -60 -186 -94 -266 -311 -725 -71
-151 -139 -296 -150 -322 l-21 -48 -28 15 c-38 20 -108 19 -144 -2 -32 -19
-85 -113 -118 -210 -73 -216 -68 -556 12 -735 14 -32 27 -58 29 -58 2 0 38 13
80 29 186 72 350 173 499 308 182 164 295 309 584 748 271 412 375 551 547
731 204 213 515 448 953 721 240 150 265 163 605 338 620 318 747 411 942 686
53 74 123 160 155 189 121 111 372 285 648 450 200 120 633 336 815 407 266
104 415 134 665 134 365 0 709 -99 1105 -319 417 -232 852 -629 1040 -952 22
-38 72 -146 110 -241 38 -94 88 -203 111 -243 39 -65 154 -194 164 -184 2 2
-28 103 -66 223 -154 476 -285 756 -461 983 -26 34 -45 62 -40 62 4 0 12 -4
18 -9 21 -22 1006 -321 1136 -346 27 -5 41 -18 77 -76 96 -149 255 -286 436
-375 227 -111 597 -174 1023 -174 175 0 166 -7 109 89 -93 155 -360 388 -727
634 -254 170 -347 207 -518 207 -114 0 -233 -29 -349 -85 -51 -25 -96 -45
-101 -45 -17 0 -312 100 -477 162 -218 81 -486 194 -975 411 -228 101 -450
199 -494 218 l-79 34 113 108 c163 156 305 263 483 366 145 83 366 180 497
217 l65 19 -42 5 c-54 8 -186 -5 -266 -26 -174 -45 -317 -123 -587 -320 -198
-145 -294 -209 -378 -255 l-63 -34 -37 23 c-82 51 -225 114 -377 165 -151 52
-205 72 -299 112 l-40 17 90 37 c254 107 519 269 777 474 134 106 258 213 504
433 412 371 612 533 848 689 311 206 627 360 985 479 155 51 385 116 413 116
7 0 25 -21 41 -46 46 -72 191 -219 265 -268 100 -66 171 -89 266 -90 70 0 90
4 150 33 158 74 321 233 499 488 l58 83 -21 26 c-65 83 -231 181 -402 238
-187 63 -495 109 -578 86 -101 -27 -197 -169 -239 -354 -12 -48 -23 -90 -25
-92 -2 -2 -53 -11 -113 -19 -333 -47 -653 -133 -974 -262 -265 -107 -641 -304
-905 -474 -55 -36 -117 -75 -137 -87 l-37 -23 -14 28 c-83 165 -95 402 -32
662 24 99 109 384 120 402 3 4 34 22 68 40 272 138 509 420 577 684 49 193 48
452 -5 766 -32 193 -75 369 -90 369 -36 0 -154 -77 -269 -175 -168 -143 -490
-589 -608 -841 -81 -174 -25 -408 154 -645 38 -49 68 -94 68 -100 0 -6 -21
-75 -46 -153 -121 -376 -233 -852 -279 -1194 l-15 -107 -71 -68 c-153 -145
-426 -349 -684 -510 -251 -156 -448 -264 -1090 -597 -785 -407 -1118 -610
-1481 -905 l-32 -26 -16 74 c-82 365 -69 874 34 1327 30 133 94 360 111 391
11 21 72 36 359 84 355 61 497 106 614 194 60 45 125 125 113 137 -11 11 -135
-16 -235 -51 -53 -19 -162 -57 -242 -85 -218 -77 -364 -94 -507 -58 l-42 10
25 56 c14 31 67 131 119 223 l95 166 97 13 c298 37 501 125 665 290 138 139
184 257 195 496 9 212 -31 490 -111 769 -53 186 -47 176 -103 169 -167 -21
-407 -144 -623 -318 -154 -124 -431 -412 -505 -525 -34 -51 -58 -153 -50 -210
21 -153 101 -310 239 -474 l55 -64 -65 -99 c-77 -117 -215 -392 -277 -554 -65
-168 -162 -496 -212 -712 -18 -79 -25 -98 -34 -98 -4 0 -68 36 -142 80 -143
86 -231 120 -311 120 l-50 0 7 -47 c10 -70 45 -122 135 -205 44 -40 96 -95
115 -123 213 -308 152 -1034 -115 -1369 -132 -168 -371 -350 -680 -521 -58
-32 -271 -144 -475 -250 -398 -207 -561 -299 -723 -407 -161 -108 -366 -266
-510 -392 -73 -64 -134 -116 -136 -116 -2 0 4 33 15 73 50 191 92 440 108 640
6 70 11 318 11 550 0 451 8 559 52 719 39 146 156 351 305 538 96 121 367 391
438 436 33 21 136 73 229 116 93 43 193 94 222 114 56 39 100 81 93 89 -12 12
-157 20 -226 13 -42 -5 -81 -7 -86 -5 -5 1 44 75 109 162 301 410 410 570 517
760 59 105 132 265 162 354 13 39 24 55 48 68 48 24 135 93 201 159 159 160
266 377 302 614 18 122 18 387 -1 562 -26 247 -70 488 -89 488 -19 0 -120
-103 -179 -181 -135 -180 -302 -506 -435 -849 -53 -137 -66 -210 -59 -318 9
-128 51 -249 127 -364 l30 -46 -38 -83 c-22 -46 -68 -149 -103 -229 -100 -230
-154 -310 -208 -310 -67 0 -98 63 -135 275 -30 171 -40 213 -60 240 -12 17
-15 15 -42 -31 -24 -41 -30 -62 -32 -129 -5 -96 14 -160 106 -360 32 -72 62
-139 65 -150 5 -16 -33 -73 -169 -250 -422 -554 -693 -842 -958 -1019 -39 -25
-73 -46 -76 -46 -4 0 1 33 12 73 10 39 27 124 37 187 44 257 46 299 43 925 -3
601 4 814 34 1030 14 108 64 367 84 435 6 21 57 90 131 175 283 328 527 647
734 960 123 187 235 369 235 383 0 13 -106 -98 -179 -188 -42 -52 -132 -176
-201 -275 -243 -352 -354 -484 -503 -596 -92 -70 -177 -116 -177 -97 0 7 4 29
10 48 39 143 54 544 27 723 l-13 88 38 20 c154 79 336 225 439 355 55 70 119
184 145 264 29 86 27 273 -5 365 -78 232 -264 506 -526 773 l-130 133 -35 -22z"/>
</g>
</svg>
