<?xml version="1.0" standalone="no"?>
<!DOCTYPE svg PUBLIC "-//W3C//DTD SVG 20010904//EN"
 "http://www.w3.org/TR/2001/REC-SVG-20010904/DTD/svg10.dtd">
<svg version="1.0" xmlns="http://www.w3.org/2000/svg"
 width="1210.000000pt" height="1280.000000pt" viewBox="0 0 1210.000000 1280.000000"
 preserveAspectRatio="xMidYMid meet">
<metadata>
Created by potrace 1.15, written by Peter Selinger 2001-2017
</metadata>
<g transform="translate(0.000000,1280.000000) scale(0.100000,-0.100000)"
fill="#000000" stroke="none">
<path d="M7199 12763 c-132 -118 -351 -575 -446 -928 -21 -79 -20 -231 1 -315
40 -155 155 -329 261 -397 25 -15 45 -33 45 -39 0 -30 -92 -277 -147 -397
l-37 -79 -23 45 c-59 118 -377 393 -710 615 -189 126 -322 193 -411 206 -46 6
-62 -21 -62 -104 1 -159 109 -494 261 -806 78 -161 137 -246 209 -303 108 -85
260 -136 388 -129 34 2 62 2 62 0 0 -8 -136 -173 -223 -270 l-101 -113 -13 51
c-17 66 -51 116 -149 215 -100 101 -222 203 -344 287 -130 90 -212 129 -280
135 l-57 6 -21 -45 c-37 -75 -47 -189 -33 -364 23 -302 74 -501 147 -583 47
-53 118 -89 193 -100 l46 -6 -68 -43 c-74 -47 -320 -176 -352 -186 -18 -5 -20
-1 -21 54 -2 74 -42 158 -164 343 -206 313 -445 578 -543 602 -79 20 -135
-132 -158 -428 -13 -171 -1 -356 30 -437 26 -68 81 -140 145 -189 57 -44 181
-111 205 -111 61 0 -143 -55 -279 -75 -25 -3 -52 -8 -61 -11 -13 -3 -28 25
-69 127 -157 395 -233 745 -247 1140 l-6 176 27 36 27 35 -22 16 c-21 14 -22
20 -16 103 26 363 179 796 384 1086 146 206 345 396 558 532 82 52 275 147
358 176 43 16 67 29 66 39 0 8 -22 76 -48 150 -41 114 -51 134 -67 132 -53 -9
-293 -115 -401 -177 -471 -270 -803 -673 -999 -1212 -86 -238 -154 -619 -154
-860 l0 -63 -61 -31 c-93 -46 -195 -69 -314 -69 -56 0 -104 2 -106 5 -3 2 34
44 82 93 70 73 96 107 133 183 69 140 89 234 84 383 -4 102 -10 136 -37 216
-151 443 -450 954 -577 986 -22 6 -32 2 -50 -19 -96 -112 -180 -736 -172
-1280 2 -125 2 -227 0 -227 -2 0 -78 75 -170 168 -107 107 -198 189 -254 227
-48 33 -87 63 -87 66 -1 4 14 10 33 13 52 10 150 80 185 133 75 112 66 194
-46 448 -134 304 -348 605 -430 605 -57 0 -138 -126 -196 -305 -94 -292 -127
-556 -81 -656 12 -25 35 -61 53 -81 l31 -36 -52 -7 c-181 -25 -368 -150 -457
-306 l-27 -48 -45 45 c-102 104 -576 300 -954 395 -104 26 -152 32 -238 33
-125 1 -131 -3 -123 -77 12 -113 179 -393 370 -622 180 -214 278 -302 383
-341 27 -10 49 -18 50 -19 2 -1 -11 -42 -27 -91 -77 -226 -162 -549 -196 -739
-18 -101 -20 -254 -5 -283 26 -49 133 -15 283 89 119 83 342 283 445 399 110
123 172 213 201 291 45 121 52 299 18 439 -29 119 -38 213 -27 280 15 93 70
198 132 254 28 25 55 46 59 46 4 0 -1 -38 -11 -84 -37 -165 -53 -325 -53 -536
-1 -169 2 -215 17 -262 24 -78 39 -91 99 -86 108 11 311 148 500 339 146 148
180 209 180 321 0 40 -7 97 -16 127 -9 30 -14 56 -13 58 2 2 117 -109 254
-247 l251 -249 -42 -25 c-87 -52 -220 -218 -394 -492 -226 -356 -362 -641
-362 -759 0 -46 31 -59 122 -52 169 13 538 170 790 336 117 78 171 134 222
231 75 143 107 357 73 498 -14 59 -13 62 3 57 125 -40 339 -29 485 25 102 37
95 38 95 -12 0 -73 29 -284 60 -439 102 -505 316 -1065 613 -1599 170 -306
309 -527 779 -1235 335 -506 453 -692 599 -948 107 -187 108 -190 94 -221 -7
-17 -45 -101 -83 -186 -95 -210 -171 -418 -190 -515 -8 -44 -16 -82 -18 -83
-1 -2 -22 9 -46 25 -185 125 -515 277 -755 349 l-92 27 40 44 c99 107 168 255
196 420 13 82 14 111 4 185 -19 145 -107 375 -257 669 -155 304 -298 489 -379
489 -36 0 -84 -118 -120 -294 -56 -278 -89 -699 -82 -1046 4 -222 11 -282 41
-350 5 -13 -23 -15 -226 -12 -128 2 -269 -1 -313 -6 -44 -5 -81 -9 -82 -8 -1
1 9 34 22 72 72 207 49 472 -57 652 -19 34 -95 119 -183 208 -348 350 -738
599 -830 531 -17 -13 -20 -27 -19 -109 1 -115 30 -266 94 -490 104 -366 269
-796 355 -922 14 -21 27 -42 28 -47 1 -6 -47 -27 -108 -48 -88 -30 -206 -76
-301 -117 -7 -3 -14 13 -18 41 -8 64 -59 156 -113 206 -88 81 -241 126 -564
168 -429 56 -804 55 -949 -2 -52 -21 -55 -24 -58 -60 -8 -95 164 -303 438
-531 52 -44 96 -82 98 -85 1 -4 -10 -14 -25 -23 -53 -32 -243 -185 -356 -286
-219 -196 -346 -371 -329 -454 5 -23 74 -53 162 -69 96 -18 449 -18 625 0 261
25 560 75 638 106 13 6 17 2 17 -14 0 -34 58 -322 96 -476 80 -327 166 -525
228 -525 54 0 155 144 241 342 158 367 268 782 250 946 -18 172 -98 344 -214
465 -38 39 -43 49 -31 57 47 30 441 160 483 160 13 0 13 -5 1 -47 -56 -185
-111 -657 -121 -1028 -8 -324 16 -497 73 -511 105 -26 445 345 680 744 131
222 160 316 151 501 -7 141 -31 234 -93 350 l-44 84 177 -6 c145 -5 400 -31
410 -41 2 -1 -18 -17 -42 -34 -57 -40 -120 -136 -145 -222 -58 -195 -101 -638
-102 -1055 0 -247 8 -353 37 -450 20 -68 28 -78 63 -77 107 3 352 280 581 657
95 157 167 304 188 385 24 92 21 270 -6 374 -25 93 -78 207 -126 270 -19 25
-31 46 -26 46 19 0 279 -108 368 -153 144 -73 433 -251 433 -267 0 -3 -17 -6
-38 -8 -52 -3 -135 -46 -173 -89 -44 -50 -86 -145 -99 -223 -7 -36 -14 -193
-17 -350 -9 -496 41 -948 115 -1040 28 -34 64 -20 137 53 159 160 433 669 490
911 26 109 15 250 -30 375 -8 24 -14 46 -12 47 6 6 182 -199 258 -300 98 -132
199 -294 199 -320 0 -63 -24 -281 -45 -417 -147 -953 -664 -1780 -1476 -2361
-113 -81 -287 -183 -451 -265 -82 -40 -148 -78 -148 -84 0 -5 7 -24 17 -42 9
-18 17 -41 19 -52 1 -11 39 -98 84 -192 l83 -173 44 0 c52 0 170 57 370 178
651 395 1177 969 1508 1647 207 421 324 829 381 1320 24 207 24 633 0 840 -45
389 -154 806 -315 1205 -29 70 -51 141 -51 161 0 20 -7 107 -15 195 -28 296
-77 506 -133 574 l-30 35 74 95 c100 128 138 170 130 145 -31 -106 -33 -224
-7 -328 67 -259 337 -754 494 -904 100 -97 129 -87 173 57 23 73 52 301 65
502 13 210 7 675 -11 776 -29 170 -109 273 -244 316 -15 5 -9 13 35 44 172
121 393 242 583 321 54 23 100 41 103 41 2 0 -7 -15 -21 -33 -39 -50 -94 -174
-117 -262 -25 -96 -30 -272 -10 -355 16 -67 102 -250 172 -368 236 -393 499
-692 609 -692 24 0 52 53 69 132 46 202 26 832 -40 1265 -32 214 -69 303 -160
388 -28 26 -49 48 -47 50 17 15 551 65 564 52 2 -2 -11 -30 -30 -62 -74 -122
-111 -284 -103 -448 8 -151 27 -208 130 -387 234 -408 572 -789 689 -778 29 3
34 8 50 50 54 147 49 570 -13 1072 -18 145 -63 393 -84 463 -7 22 -6 22 123
-12 115 -31 219 -65 364 -121 l46 -18 -53 -52 c-65 -64 -128 -155 -165 -238
-93 -209 -87 -367 27 -751 79 -270 214 -584 298 -698 35 -46 87 -87 113 -87
23 0 89 118 130 232 71 200 153 566 201 894 12 78 21 158 21 179 0 20 4 35 9
33 4 -1 26 -24 49 -50 145 -169 274 -219 607 -236 415 -22 781 32 841 123 17
25 16 28 -3 68 -69 138 -377 401 -767 654 l-99 65 105 99 c184 172 298 326
298 402 0 30 -5 39 -30 52 -157 81 -777 67 -1240 -29 -189 -39 -285 -87 -350
-177 -33 -47 -70 -138 -70 -174 0 -14 -3 -25 -7 -25 -5 0 -55 16 -113 35 -65
21 -104 39 -102 46 2 7 12 25 23 41 105 147 354 859 420 1201 26 134 30 276 9
302 -22 27 -103 15 -192 -27 -269 -128 -738 -539 -843 -740 -91 -172 -107
-413 -41 -611 l23 -68 -181 6 c-101 4 -239 2 -311 -4 -71 -5 -130 -9 -132 -8
-1 2 7 32 19 67 18 57 22 96 26 300 10 522 -65 1130 -161 1303 -25 45 -54 48
-108 11 -150 -104 -461 -688 -556 -1044 -22 -86 -22 -242 1 -335 29 -114 105
-260 176 -338 34 -37 61 -69 59 -71 -2 -1 -56 -20 -119 -41 -182 -60 -406
-160 -548 -244 l-52 -30 0 29 c0 128 -136 486 -331 870 -106 209 -186 339
-252 408 -67 69 -76 71 -114 27 -82 -95 -140 -422 -150 -840 -6 -269 3 -333
66 -460 66 -132 170 -239 293 -299 l67 -33 -69 -57 c-154 -129 -392 -396 -524
-588 l-53 -77 -73 117 c-109 173 -319 488 -557 832 -419 609 -600 887 -760
1170 -93 166 -183 336 -183 347 0 5 34 15 75 22 41 7 127 25 191 42 121 30
133 29 134 -11 0 -24 81 -163 133 -229 56 -73 160 -153 237 -182 113 -44 247
-17 479 98 187 92 310 198 327 279 5 27 0 36 -50 81 -63 58 -218 141 -386 207
l-112 44 48 27 c116 67 174 102 256 157 49 32 90 58 92 58 2 0 7 -24 10 -53 9
-68 56 -150 104 -182 140 -92 735 -117 913 -38 62 28 72 44 67 102 -10 100
-115 277 -278 467 -70 81 -184 188 -227 212 -17 10 -15 14 18 49 47 50 132
158 203 261 32 46 60 82 61 80 2 -2 24 -30 49 -63 89 -116 231 -210 353 -235
131 -28 298 6 578 117 296 117 497 242 535 333 12 29 11 33 -15 60 -70 74
-288 157 -624 240 -175 43 -309 66 -549 96 -40 5 -41 6 -30 27 6 12 31 76 54
142 l42 120 118 -3 c346 -9 514 149 759 713 116 265 170 490 135 556 -38 70
-328 -56 -696 -302 l-102 -68 -11 112 c-39 362 -95 640 -153 757 -41 81 -60
86 -119 33z m-733 -8134 c30 -115 66 -300 84 -434 10 -77 17 -141 16 -142 -1
-1 -29 33 -63 75 -69 88 -228 260 -290 316 -24 21 -43 42 -43 46 0 5 15 14 34
20 51 16 144 80 196 133 24 25 46 44 48 43 2 -2 10 -28 18 -57z"/>
</g>
</svg>
